<svg width="64" height="77" viewBox="0 0 64 77" fill="none" xmlns="http://www.w3.org/2000/svg">
<path fill-rule="evenodd" clip-rule="evenodd" d="M32.2711 45.4385C39.5056 45.4742 46.694 46.646 53.6311 48.9224C56.9195 50.0002 59.1271 53.1622 59.1271 56.7937V62.9341C54.1841 66.6954 44.7 72.2679 31.8983 72.2679C26.2263 72.2679 15.2677 71.038 4.66945 62.9341V56.7937C4.66945 53.1622 6.88546 49.9958 10.1865 48.9179C17.3664 46.5655 24.7936 45.4653 32.2711 45.4385ZM32.1915 5.18311C39.0281 5.18311 44.8508 10.3263 46.2374 17.3523C45.0519 18.0857 43.8245 18.6 41.7007 18.6C38.9694 18.6 37.7295 17.7637 36.1544 16.7083C34.3614 15.5007 32.334 14.1277 28.4214 14.1277C24.4795 14.1277 22.4394 15.5052 20.6381 16.7172C19.5867 17.4238 18.6818 18.0321 17.3791 18.3586C18.3719 10.9211 24.3747 5.18311 31.6051 5.18311H32.1915ZM54.8585 44.6469C50.9166 43.3544 46.8909 42.4286 42.8233 41.8114C47.603 38.2246 50.749 32.3167 50.749 25.6216H46.56C46.56 34.0832 40.113 40.9616 32.1915 40.9616H31.6051C23.6836 40.9616 17.2366 34.0832 17.2366 25.6216V22.9293C19.838 22.5447 21.4341 21.4713 22.8751 20.4963C24.4501 19.4364 25.6943 18.6001 28.4214 18.6001C31.1191 18.6001 32.3549 19.4319 33.9174 20.4874C35.7187 21.6994 37.7588 23.0724 41.7007 23.0724C45.6426 23.0724 47.691 21.686 49.6515 20.3577L50.7616 19.6063L50.6108 18.2065C49.5091 8.23316 41.5876 0.7108 32.1915 0.7108H31.6051C21.3712 0.7108 13.0475 9.60177 13.0475 20.8362V25.6216C13.0475 32.3301 16.2019 38.2425 20.99 41.8293C16.9266 42.4331 12.9009 43.3499 8.95486 44.6424C3.8861 46.3016 0.480408 51.1899 0.480408 56.7937V65.1882L1.31821 65.8591C13.1439 75.3269 25.5519 76.7402 31.8983 76.7402C46.6773 76.7402 57.4013 69.9199 62.4784 65.8591L63.3162 65.1882V56.7937C63.3162 51.1853 59.9147 46.3061 54.8585 44.6469Z" fill="black"/>
</svg>
